<?xml version="1.0" encoding="UTF-8"?>
<svg xmlns="http://www.w3.org/2000/svg" version="1.1" xmlns:xlink="http://www.w3.org/1999/xlink" viewBox="0 0 1920 1080">
  <defs>
    <style>
      .cls-1 {
        isolation: isolate;
      }

      .cls-2 {
        fill: #7d55c7;
      }

      .cls-3 {
        fill: #333;
      }

      .cls-4 {
        fill: url(#linear-gradient);
      }
    </style>
    <linearGradient id="linear-gradient" x1="497.4" y1="-295.9" x2="915.2" y2="-295.9" gradientTransform="translate(0 244) scale(1 -1)" gradientUnits="userSpaceOnUse">
      <stop offset="0" stop-color="#ffbe0b"/>
      <stop offset=".2" stop-color="#f94b4e"/>
      <stop offset=".4" stop-color="#f40876"/>
      <stop offset=".8" stop-color="#745ca8"/>
      <stop offset="1" stop-color="#3c85fd"/>
    </linearGradient>
  </defs>
  <!-- Generator: Adobe Illustrator 28.7.0, SVG Export Plug-In . SVG Version: 1.2.0 Build 136)  -->
  <g>
    <g id="Layer_1">
      <g>
        <g>
          <circle class="cls-2" cx="622.1" cy="328.3" r="15.3"/>
          <circle class="cls-2" cx="526.4" cy="458.6" r="15.3"/>
          <path class="cls-4" d="M895.5,684.5c-3.6,0-7,1-9.9,2.6l-14.2-19.5c5.7-4.9,9.2-12.2,9.2-20.2,0-14.8-12-26.8-26.8-26.8s-26.8,12-26.8,26.8.2,3.8.6,5.7l-27.3,9h0c-4.1-9.6-13.6-16.3-24.6-16.3s-20.7,6.8-24.7,16.4l-27.3-8.8c.5-1.9.7-4,.7-6,0-14.8-12-26.8-26.8-26.8s-9.7,1.4-13.7,3.8l-16.6-23.1c5.7-4.9,9.4-12.2,9.4-20.4,0-14.1-10.8-25.6-24.6-26.7v-28.6c13.6-1.2,24.3-12.7,24.3-26.7s-3.8-15.8-9.8-20.7l16.8-22.6c4.2,2.7,9.2,4.2,14.5,4.2,15,0,27.1-12.1,27.1-27.1s-.3-4.3-.8-6.3l26.6-8.7c4,9.9,13.8,17,25.1,17s20.6-6.6,24.8-16.2h0l26,9.2c-.3,1.6-.5,3.3-.5,5,0,15,12.1,27.1,27.1,27.1s27.1-12.1,27.1-27.1-3.4-15.1-8.8-20l14-19.9c2.9,1.6,6.1,2.5,9.6,2.5,11,0,20-9,20-20s-9-20-20-20-4.2.3-6.2,1l-24-52.6c4.2-2.7,7-7.5,7-12.9,0-8.5-6.9-15.3-15.3-15.3s-15.3,6.9-15.3,15.3.3,3.8,1,5.5l-50.9,28.6c-3.6-5.1-9.6-8.4-16.3-8.4s-12.5,3.2-16.1,8.2l-50.1-28.4c.7-1.7,1-3.6,1-5.5,0-8.5-6.9-15.3-15.3-15.3s-15.3,6.9-15.3,15.3,2.8,10.1,6.9,12.8l-24.2,52.6c-2-.6-4.1-1-6.3-1-11,0-20,9-20,20v.2l-57.9,7.1c-1.7-6.6-7.7-11.5-14.8-11.5s-15.3,6.9-15.3,15.3,6.9,15.3,15.3,15.3.8,0,1.2,0l12.7,56.3c-8.5,2.3-14.8,10.1-14.8,19.3s.9,6.6,2.4,9.5l-42.4,41.2c-2.6-2.1-5.9-3.3-9.5-3.3-8.5,0-15.3,6.9-15.3,15.3s6.9,15.3,15.3,15.3,7-1.3,9.7-3.4l43.6,39.6c-2.4,3.3-3.8,7.3-3.8,11.7,0,8.9,5.8,16.4,13.8,19l-11.5,56.1h-.8c-8.5,0-15.3,6.9-15.3,15.3s6.9,15.3,15.3,15.3,13-4.8,14.8-11.3l57.3,6.8h0c0,11.1,9,20.1,20,20.1s4.2-.3,6.1-1l23.8,52.7c-4.2,2.7-7,7.5-7,12.9,0,8.5,6.9,15.3,15.3,15.3s15.3-6.9,15.3-15.3-.4-3.8-1-5.5l50.7-28.7c3.6,5,9.5,8.2,16.2,8.2s12.6-3.3,16.2-8.3l51,28.7c-.7,1.7-1,3.5-1,5.5,0,8.5,6.9,15.3,15.3,15.3s15.3-6.9,15.3-15.3-2.8-10.1-7-12.9l24-52.7c2,.6,4,1,6.2,1,11,0,20-9,20-20s-9-20-20-20h0l.3.2h0ZM802.6,672.5c0-2.1-.2-4.2-.7-6.2l27.2-9c3.1,7.8,9.8,13.8,18,15.9l-7.1,40.3h-1.2c-4.8,0-9.2,1.7-12.7,4.5l-29.5-28.6c3.8-4.6,6-10.5,6-17h0ZM704.6,673.3c8.1-2.1,14.7-8,17.9-15.5l27.3,8.8c-.5,1.9-.7,4-.7,6,0,6.4,2.3,12.3,6,17l-29.5,28.6c-3.5-2.8-7.9-4.5-12.7-4.5s-.8,0-1.2,0l-7.1-40.3h0ZM663.7,603.9l16.6,23.1c-5.7,4.9-9.4,12.2-9.4,20.4s0,1,0,1.4l-40,5.5c-1.3-5-4.4-9.2-8.6-11.9l17.9-36.6c3,1.2,6.3,1.8,9.7,1.8,5,0,9.7-1.4,13.7-3.8h0ZM591.3,532.3l35.3-19.6c4.3,7.2,12,12.2,20.8,13v28.6c-8.4.7-15.7,5.4-20,12.2l-36-19.1c.9-2.3,1.4-4.8,1.4-7.4s-.5-5.3-1.5-7.6h0ZM663,475.7c-3.9-2.2-8.5-3.5-13.3-3.5s-6.3.6-9.2,1.6l-18.1-36.4c4.2-2.7,7.2-6.9,8.5-11.8l40,5.7v1.5c0,8,3.5,15.2,9,20.1l-17,22.8h0ZM749,407.6c0,2,.2,4,.6,5.8l-26.7,8.7c-3.3-7.7-10.1-13.6-18.4-15.7l7-40.2h1.2c4.8,0,9.2-1.7,12.7-4.5l29.6,28.7c-3.8,4.7-6.1,10.7-6.1,17.2h.1ZM828.2,423.4l-25.7-9.1c.5-2.1.8-4.4.8-6.7,0-6.7-2.4-12.8-6.4-17.5l29.2-28.3c3.5,2.9,7.9,4.5,12.7,4.5s.8,0,1.1,0l6.9,40.3c-8.6,2.2-15.6,8.6-18.6,16.8h0ZM861.2,774.4c-1.3-.4-2.8-.6-4.2-.6-4.9,0-9.3,2.3-12.1,5.9l-51-28.7c1-2.4,1.6-5,1.6-7.8,0-11-9-20-20-20s-20,9-20,20,.6,5.4,1.6,7.8l-50.7,28.7c-2.8-3.6-7.2-5.9-12.1-5.9s-2.8.2-4.2.6l-23.8-52.7c5.8-3.5,9.8-9.9,9.8-17.2,0-11-9-20-20-20s-17.4,6.6-19.5,15.4l-57.3-6.8c-.2-6.4-4.3-11.8-10.1-13.9l11.5-56.1h1.8c11,0,20-9,20-20s-9-20-20-20-9.7,1.9-13.2,5l-43.6-39.6c1.7-2.5,2.6-5.4,2.6-8.6s-1-6.2-2.7-8.7l41.9-40.8c3.7,4.2,9,6.8,15,6.8,11,0,20-9,20-20s-9-20-20-20-.5,0-.8,0l-12.8-56.7c5.5-2.2,9.4-7.4,9.7-13.6l58-7.1c2.1,8.8,10,15.4,19.5,15.4s20-9,20-20-3.9-13.6-9.6-17.1l24.2-52.6c1.4.4,2.8.6,4.3.6,4.9,0,9.3-2.3,12.1-5.9l50.1,28.4c-1,2.4-1.6,5.1-1.6,7.9,0,11,9,20,20,20s20-9,20-20-.5-5.3-1.5-7.7l50.9-28.6c2.8,3.6,7.2,5.9,12.1,5.9s2.9-.2,4.2-.6l24,52.6c-5.8,3.5-9.7,9.9-9.7,17.1s2.6,11.3,6.7,14.9l-13.9,19.7c-4.2-2.7-9.3-4.3-14.7-4.3s-1.6,0-2.3.1l-6.9-40.3c8.3-2.4,14.4-10.1,14.4-19.2s-9-20-20-20-20,9-20,20,1.6,8.8,4.2,12.2l-29.3,28.4c-4.7-4-10.8-6.4-17.5-6.4s-13.1,2.5-17.8,6.7l-29.6-28.7c2.6-3.4,4.2-7.6,4.2-12.2,0-11-9-20-20-20s-20,9-20,20,6,16.8,14.3,19.2l-7.1,40.3h-2.1c-12.9,0-23.7,9-26.4,21.1l-40-5.7v-.6c0-11-9-20-20-20s-20,9-20,20,9,20,20,20,4.7-.4,6.8-1.2l18,36.3c-8.1,4.6-13.5,13.3-13.5,23.3s.6,6.7,1.8,9.7l-35.5,19.7c-3.6-5.1-9.6-8.4-16.3-8.4-11,0-20,9-20,20s9,20,20,20,12.8-3.4,16.5-8.6l36,19.1c-1.4,3.2-2.1,6.8-2.1,10.5,0,9.8,5.2,18.3,13,23l-17.9,36.6c-2.1-.8-4.4-1.2-6.7-1.2-11,0-20,9-20,20s9,20,20,20,20-9,20-20v-.5l40-5.5c2.7,12,13.4,20.9,26.1,20.9s1.6,0,2.4,0l7.1,40.3c-8.3,2.4-14.3,10.1-14.3,19.2s9,20,20,20,20-9,20-20-1.5-8.8-4.2-12.2l29.5-28.6c4.7,4.1,10.9,6.6,17.6,6.6s12.9-2.5,17.6-6.6l29.5,28.6c-2.6,3.4-4.2,7.6-4.2,12.2,0,11,9,20,20,20s20-9,20-20-6-16.8-14.3-19.2l7.1-40.3h2.4c5.1,0,9.8-1.4,13.9-3.9l14.2,19.5c-4,3.7-6.5,8.9-6.5,14.7s3.9,13.7,9.7,17.2l-24,52.7h-.3Z"/>
          <circle class="cls-2" cx="526.5" cy="620.7" r="15.3"/>
          <circle class="cls-2" cx="622.1" cy="752.3" r="15.3"/>
          <circle class="cls-2" cx="775.7" cy="802.7" r="15.3"/>
          <circle class="cls-2" cx="929.9" cy="752.3" r="15.3"/>
          <circle class="cls-2" cx="775.7" cy="277.3" r="15.3"/>
          <circle class="cls-2" cx="929.9" cy="328.3" r="15.3"/>
        </g>
        <g class="cls-1">
          <path class="cls-2" d="M1102.7,483.5v1.5c.1,0-16.2,0-16.2,0l-.3-1.5c-2.8-13.9-11.4-22.8-27-22.8s-31.3,16.5-31.3,40.9,12.3,41.5,30.6,41.5,24.1-9.1,27-23.1l.3-1.5h16.3v1.5c-2.2,20.2-17.4,35.7-44.4,35.7s-47.7-21.9-47.7-53.4,20.4-54.3,49.5-54.3,41.1,15,43.2,35.4Z"/>
          <path class="cls-2" d="M1135.1,529.4c0,2.7,0,5.1.2,7.5.3,4.5,2.4,6,9.4,5.4v11.5c-3.3.4-7,.8-10.8.8-8.7,0-14.5-3.2-15.1-13.3-.1-3-.1-6.6-.1-11.4v-86.4h16.5v85.9Z"/>
          <path class="cls-2" d="M1233.2,513.8c0,23.2-13.6,42-40.3,42s-40.3-18.7-40.3-42,13.5-41.8,40.3-41.8,40.3,18.6,40.3,41.8ZM1215.7,513.8c0-18-8.4-29.8-22.8-29.8s-22.9,11.8-22.9,29.8,8.4,30,22.9,30,22.8-12,22.8-30Z"/>
          <path class="cls-2" d="M1317.2,553.7h-16.3v-13.6l-5.5,9.9c-6.3,4.5-12.1,5.8-20.1,5.8-16.5,0-26.1-9.3-27.9-20.2-.6-4-.8-7.6-.8-14.1v-47.4h16.3v44.1c0,2.5.2,6.9.6,11,1.2,8.7,6.9,14.4,17.1,14.4s20.2-8.8,20.2-31.9v-37.5h16.3v79.6Z"/>
          <path class="cls-2" d="M1411.6,553.7h-16.5v-12.6l-6,8.7c-4.5,3.6-12.8,6-20.8,6-22.8,0-35.8-17.2-35.8-40.6s18-43.2,38.5-43.2,14.8,1.8,18.9,5l5.2,7.9v-41.4h16.5v110.2ZM1395.1,514.7v-4.2c0-19.3-11.7-26.5-22.3-26.5s-22.9,10-22.9,29.8,8,30,22.2,30,23.1-7.8,23.1-29.1Z"/>
        </g>
        <g class="cls-1">
          <g class="cls-1">
            <g class="cls-1">
              <path class="cls-3" d="M1069.9,635.5v-48.6h7.8v48.6h-7.8Z"/>
              <path class="cls-3" d="M1134.9,614.5v21.1h-7.7v-20.2c0-1.8,0-3.4-.1-5.3-.4-4.2-2.6-7.2-7.9-7.2s-9.7,4.2-9.7,15.9v16.8h-7.7v-37.4h7.7v6.2l2.5-4.3c3-2.3,5.7-2.9,9.4-2.9,8,0,12.6,4.2,13.3,10.7.1,1.9.2,3.6.2,6.6Z"/>
              <path class="cls-3" d="M1167.7,623.4c0,1.3,0,2.1,0,3.1.3,3.7,1.7,4.4,6.8,3.9v5.4c-2,.3-3.8.4-5.7.4-5.8,0-8.4-2.2-8.7-7.1,0-1.3,0-2.9,0-5v-20.3h-5.3v-5.4h5.3v-8.9h7.7v8.9h7.3v5.4h-7.3v19.6Z"/>
              <path class="cls-3" d="M1227.4,619h-26.8c.6,8.9,4.7,11.9,9.8,11.9s8-2.7,8.8-7.5h7.8c-1.6,8.9-8.7,13.1-16.9,13.1s-17.5-6.3-17.5-19.6,7.5-19.8,18.3-19.8,16.7,8.2,16.7,18.7,0,1.8-.1,3.1ZM1200.6,613.6h19c-.6-6.9-3.6-10.8-9-10.8s-9.1,3.6-9.9,10.8Z"/>
              <path class="cls-3" d="M1268.3,597.6v6.1c-7.1-.5-11.6,3.2-11.6,12.4v19.4h-7.7v-37.4h7.7v6.3l3.2-5.1c1.7-1.3,3.9-2.1,5.8-2.1s1.8.1,2.6.4Z"/>
              <path class="cls-3" d="M1308.8,630.1l-1.9,4c-2.5,1.8-5.8,2.4-9.3,2.4-6.6,0-12-3.8-12-10.8s6.6-12.8,20.8-12.8h2.4v-.9c0-1.4,0-2.7-.1-4.1-.2-3-2.1-5.1-6.6-5.1s-6.8,2.5-7.3,7.2h-7.7c.5-8.2,6.6-12.8,15.1-12.8s13.5,4.1,14.1,10.4c.1,1.5.2,3.5.2,5.3v13.2c0,2.8.1,5.4.7,9.5h-7.7l-.7-5.4ZM1308.7,621.5v-3.5c-9.1-.7-15,1.3-15,7s2.6,5.8,6.7,5.8,8.3-3.3,8.3-9.4Z"/>
              <path class="cls-3" d="M1372.1,611.1h-7.8c-1.1-5.7-4.2-8.3-8.7-8.3s-9.7,4.3-9.7,13.7,4.2,14.4,9.4,14.4,7.6-2.7,8.7-7.8h7.9c-1.8,8.9-8.2,13.4-17,13.4s-17.2-6.2-17.2-19.5,8.3-19.9,18.1-19.9,15.4,5.7,16.3,13.9Z"/>
              <path class="cls-3" d="M1402.1,623.4c0,1.3,0,2.1,0,3.1.3,3.7,1.7,4.4,6.8,3.9v5.4c-2,.3-3.8.4-5.7.4-5.8,0-8.4-2.2-8.7-7.1,0-1.3,0-2.9,0-5v-20.3h-5.3v-5.4h5.3v-8.9h7.7v8.9h7.3v5.4h-7.3v19.6Z"/>
            </g>
          </g>
        </g>
      </g>
    </g>
  </g>
</svg>