<?xml version="1.0" encoding="UTF-8"?>
<svg id="Layer_1" xmlns="http://www.w3.org/2000/svg" xmlns:xlink="http://www.w3.org/1999/xlink" viewBox="0 0 572 572">
  <defs>
    <style>
      .cls-1 {
        fill: #7d55c7;
      }

      .cls-2 {
        fill: url(#linear-gradient-2);
      }

      .cls-3 {
        fill: #b595d8;
      }

      .cls-4 {
        fill: none;
      }

      .cls-5 {
        fill: url(#linear-gradient-3);
      }

      .cls-6 {
        clip-path: url(#clippath-1);
      }

      .cls-7 {
        fill: url(#linear-gradient);
      }

      .cls-8 {
        clip-path: url(#clippath);
      }
    </style>
    <linearGradient id="linear-gradient" x1="62.21" y1="286" x2="480.1" y2="286" gradientUnits="userSpaceOnUse">
      <stop offset="0" stop-color="#ffbe0b"/>
      <stop offset=".22" stop-color="#f94b4e"/>
      <stop offset=".4" stop-color="#f40876"/>
      <stop offset=".79" stop-color="#745ca8"/>
      <stop offset=".98" stop-color="#3c85fd"/>
    </linearGradient>
    <clipPath id="clippath">
      <rect class="cls-4" x="-662" y="1003" width="572" height="572"/>
    </clipPath>
    <linearGradient id="linear-gradient-2" x1="-409.73" y1="1236.03" x2="434.63" y2="1236.03" gradientTransform="translate(-912.32 120.31) rotate(-37.83)" xlink:href="#linear-gradient"/>
    <clipPath id="clippath-1">
      <rect class="cls-4" y="1003" width="572" height="572"/>
    </clipPath>
    <linearGradient id="linear-gradient-3" x1="1372.26" y1="1509.42" x2="159.49" y2="827.73" gradientUnits="userSpaceOnUse">
      <stop offset="0" stop-color="#ffbe0b"/>
      <stop offset=".22" stop-color="#f94b4e"/>
      <stop offset=".5" stop-color="#f40876"/>
      <stop offset=".79" stop-color="#745ca8"/>
      <stop offset=".98" stop-color="#3c85fd"/>
    </linearGradient>
  </defs>
  <g>
    <circle class="cls-1" cx="186.61" cy="74.31" r="15.33"/>
    <circle class="cls-1" cx="91.09" cy="204.68" r="15.33"/>
    <path class="cls-7" d="M460.09,430.49c-3.59,0-6.97.95-9.89,2.61l-14.2-19.48c5.66-4.91,9.24-12.16,9.24-20.24,0-14.79-11.99-26.78-26.78-26.78s-26.78,11.99-26.78,26.78c0,1.94.21,3.84.6,5.66l-27.26,9h0c-4.09-9.56-13.58-16.27-24.64-16.27s-20.67,6.79-24.72,16.44l-27.27-8.79c.45-1.94.68-3.96.68-6.04,0-14.79-11.99-26.78-26.78-26.78-5.02,0-9.73,1.38-13.74,3.79l-16.61-23.12c5.74-4.91,9.38-12.21,9.38-20.36,0-14.06-10.84-25.6-24.63-26.7l-.11-28.58c13.68-1.2,24.41-12.69,24.41-26.68,0-8.33-3.8-15.77-9.76-20.68l16.84-22.59c4.2,2.68,9.19,4.23,14.55,4.23,14.97,0,27.11-12.13,27.11-27.11,0-2.18-.26-4.3-.75-6.33l26.6-8.68c4.02,9.94,13.76,16.95,25.14,16.95s20.6-6.64,24.8-16.16h0l26,9.18c-.31,1.64-.47,3.32-.47,5.05,0,14.97,12.13,27.11,27.11,27.11s27.11-12.13,27.11-27.11c0-7.93-3.4-15.06-8.83-20.02l14.04-19.88c2.86,1.57,6.14,2.47,9.63,2.47,11.05,0,20.01-8.96,20.01-20.01s-8.96-20.01-20.01-20.01c-2.16,0-4.25.34-6.2.98l-24.01-52.59c4.2-2.73,6.98-7.47,6.98-12.86,0-8.46-6.86-15.32-15.33-15.32s-15.33,6.86-15.33,15.32c0,1.92.35,3.77,1.01,5.47l-50.89,28.63c-3.63-5.06-9.56-8.36-16.27-8.36s-12.49,3.21-16.13,8.17l-50.08-28.39c.66-1.71,1.03-3.58,1.03-5.52,0-8.46-6.86-15.32-15.33-15.32s-15.33,6.86-15.33,15.32c0,5.37,2.76,10.09,6.94,12.83l-24.23,52.63c-1.97-.65-4.07-1-6.26-1-11.05,0-20.01,8.96-20.01,20.01v.16l-57.92,7.06c-1.7-6.61-7.7-11.49-14.84-11.49-8.47,0-15.33,6.86-15.33,15.32s6.86,15.33,15.33,15.33c.41,0,.83-.02,1.23-.05l12.71,56.34c-8.5,2.3-14.75,10.07-14.75,19.3,0,3.43.86,6.65,2.38,9.47l-42.39,41.21c-2.61-2.08-5.92-3.32-9.52-3.32-8.47,0-15.33,6.86-15.33,15.32s6.86,15.33,15.33,15.33c3.66,0,7.02-1.28,9.65-3.43l43.64,39.58c-2.37,3.29-3.76,7.33-3.76,11.68,0,8.88,5.79,16.41,13.8,19.03l-11.51,56.11c-.28-.02-.56-.03-.83-.03-8.47,0-15.33,6.86-15.33,15.32s6.86,15.33,15.33,15.33c7.07,0,13.03-4.8,14.79-11.31l57.33,6.78v.09c0,11.05,8.96,20.01,20.01,20.01,2.14,0,4.2-.34,6.12-.96l23.81,52.69c-4.23,2.73-7.03,7.48-7.03,12.88,0,8.47,6.86,15.33,15.33,15.33s15.33-6.87,15.33-15.33c0-1.94-.36-3.79-1.02-5.49l50.66-28.66c3.63,5,9.53,8.25,16.19,8.25s12.58-3.27,16.21-8.28l50.95,28.71c-.65,1.7-1.01,3.54-1.01,5.47,0,8.47,6.86,15.33,15.33,15.33s15.33-6.87,15.33-15.33c0-5.39-2.78-10.13-6.99-12.86l24.03-52.73c1.95.63,4.03.97,6.19.97,11.05,0,20.01-8.96,20.01-20.01s-8.96-20.01-20.01-20.01ZM367.16,418.55c0-2.14-.25-4.23-.73-6.22l27.18-8.97c3.12,7.78,9.79,13.75,18.01,15.92l-7.09,40.29c-.41-.03-.81-.04-1.22-.04-4.82,0-9.25,1.7-12.7,4.55l-29.49-28.58c3.78-4.61,6.05-10.52,6.05-16.95ZM269.14,419.27c8.09-2.13,14.68-7.95,17.86-15.55l27.27,8.79c-.45,1.94-.68,3.96-.68,6.04,0,6.43,2.27,12.34,6.05,16.95l-29.49,28.58c-3.45-2.85-7.88-4.55-12.7-4.55-.41,0-.81.01-1.22.04l-7.09-40.29h0ZM228.26,349.9l16.61,23.12c-5.74,4.91-9.38,12.21-9.38,20.36,0,.48.01.96.03,1.43l-40.03,5.54c-1.26-4.97-4.4-9.2-8.61-11.89l17.92-36.58c3.01,1.17,6.29,1.81,9.71,1.81,5.02,0,9.73-1.38,13.74-3.79ZM155.9,278.3l35.31-19.61c4.33,7.23,11.98,12.25,20.84,12.95l.11,28.58c-8.47.74-15.8,5.41-20.16,12.18l-36-19.1c.91-2.28,1.41-4.78,1.41-7.39s-.54-5.27-1.5-7.62ZM227.51,221.69c-3.92-2.25-8.47-3.54-13.31-3.54-3.21,0-6.3.57-9.16,1.61l-18.06-36.43c4.15-2.69,7.24-6.87,8.51-11.78l40.05,5.71c-.03.5-.04,1.01-.04,1.52,0,8,3.46,15.18,8.96,20.14l-16.95,22.76ZM313.59,153.62c0,2,.22,3.96.63,5.83l-26.67,8.71c-3.29-7.73-10.07-13.61-18.36-15.68l7.05-40.21c.4.03.8.04,1.21.04,4.82,0,9.25-1.7,12.7-4.55l29.58,28.67c-3.84,4.68-6.14,10.66-6.14,17.19ZM392.72,169.37l-25.74-9.09c.54-2.14.83-4.37.83-6.67,0-6.69-2.42-12.8-6.43-17.53l29.22-28.33c3.45,2.85,7.88,4.55,12.7,4.55.38,0,.76-.01,1.14-.03l6.91,40.26c-8.62,2.23-15.57,8.58-18.63,16.83ZM425.76,520.39c-1.34-.39-2.76-.59-4.23-.59-4.92,0-9.3,2.32-12.09,5.92l-50.95-28.71c1.01-2.39,1.57-5.03,1.57-7.79,0-11.05-8.96-20.01-20.01-20.01s-20.01,8.96-20.01,20.01c0,2.78.57,5.41,1.59,7.82l-50.66,28.66c-2.8-3.59-7.17-5.9-12.08-5.9-1.45,0-2.85.2-4.18.58l-23.81-52.7c5.85-3.49,9.76-9.88,9.76-17.19,0-11.05-8.96-20.01-20.01-20.01-9.47,0-17.41,6.59-19.48,15.43l-57.33-6.78c-.18-6.42-4.32-11.84-10.06-13.94l11.51-56.1c.59.05,1.18.08,1.78.08,11.05,0,20.01-8.96,20.01-20.01s-8.96-20.01-20.01-20.01c-5.06,0-9.68,1.88-13.2,4.98l-43.63-39.58c1.65-2.45,2.62-5.4,2.62-8.57s-1-6.23-2.72-8.71l41.92-40.75c3.67,4.16,9.03,6.78,15.01,6.78,11.05,0,20.01-8.96,20.01-20.01s-8.96-20.01-20.01-20.01c-.26,0-.52,0-.77.02l-12.79-56.68c5.47-2.16,9.4-7.4,9.67-13.58l58-7.07c2.1,8.8,10.02,15.35,19.46,15.35,11.05,0,20.01-8.96,20.01-20.01,0-7.25-3.86-13.6-9.64-17.12l24.23-52.63c1.36.4,2.79.61,4.29.61,4.9,0,9.27-2.3,12.07-5.89l50.06,28.39c-1.05,2.43-1.63,5.1-1.63,7.91,0,11.05,8.96,20.01,20.01,20.01s20.01-8.96,20.01-20.01c0-2.73-.55-5.33-1.54-7.71l50.91-28.64c2.79,3.61,7.18,5.93,12.1,5.93,1.47,0,2.9-.21,4.25-.6l24.01,52.59c-5.81,3.5-9.7,9.87-9.7,17.15,0,5.94,2.59,11.27,6.69,14.93l-13.94,19.73c-4.23-2.74-9.28-4.32-14.7-4.32-.79,0-1.57.03-2.34.1l-6.91-40.27c8.33-2.41,14.42-10.1,14.42-19.21,0-11.05-8.96-20.01-20.01-20.01s-20.01,8.96-20.01,20.01c0,4.6,1.56,8.84,4.16,12.22l-29.28,28.38c-4.72-3.99-10.82-6.39-17.48-6.39s-13.06,2.52-17.82,6.68l-29.58-28.67c2.61-3.38,4.16-7.62,4.16-12.22,0-11.05-8.96-20.01-20.01-20.01s-20.01,8.96-20.01,20.01c0,9.08,6.05,16.75,14.35,19.19l-7.06,40.27c-.7-.06-1.41-.08-2.12-.08-12.91,0-23.71,9.02-26.44,21.11l-40.05-5.7c0-.19,0-.38,0-.57,0-11.05-8.96-20.01-20.01-20.01s-20.01,8.96-20.01,20.01,8.96,20.01,20.01,20.01c2.39,0,4.69-.42,6.81-1.19l18.01,36.32c-8.07,4.61-13.52,13.31-13.52,23.27,0,3.41.64,6.68,1.81,9.68l-35.5,19.73c-3.62-5.11-9.58-8.44-16.32-8.44-11.05,0-20.01,8.96-20.01,20.01s8.96,20.01,20.01,20.01c6.82,0,12.85-3.42,16.46-8.64l36.02,19.1c-1.38,3.23-2.14,6.78-2.14,10.51,0,9.76,5.22,18.3,13.02,22.98l-17.92,36.59c-2.1-.75-4.36-1.16-6.72-1.16-11.05,0-20.01,8.96-20.01,20.01s8.96,20.01,20.01,20.01,20.01-8.96,20.01-20.01c0-.16,0-.33,0-.49l40.03-5.55c2.68,11.95,13.37,20.88,26.13,20.88.81,0,1.61-.04,2.4-.11l7.09,40.3c-8.29,2.44-14.33,10.11-14.33,19.19,0,11.05,8.96,20.01,20.01,20.01s20.01-8.96,20.01-20.01c0-4.6-1.55-8.83-4.16-12.21l29.48-28.58c4.7,4.1,10.86,6.59,17.59,6.59s12.89-2.48,17.59-6.59l29.48,28.58c-2.61,3.38-4.16,7.62-4.16,12.21,0,11.05,8.96,20.01,20.01,20.01s20.01-8.96,20.01-20.01c0-9.08-6.05-16.75-14.33-19.19l7.09-40.3c.79.07,1.59.11,2.4.11,5.09,0,9.84-1.42,13.9-3.89l14.2,19.48c-3.98,3.66-6.47,8.91-6.47,14.73,0,7.29,3.89,13.66,9.71,17.15l-24.04,52.74Z"/>
    <circle class="cls-1" cx="91.09" cy="366.67" r="15.33"/>
    <circle class="cls-1" cx="186.61" cy="498.33" r="15.33"/>
    <circle class="cls-1" cx="340.21" cy="548.67" r="15.33"/>
    <circle class="cls-1" cx="494.46" cy="498.33" r="15.33"/>
    <circle class="cls-1" cx="340.21" cy="23.33" r="15.33"/>
    <circle class="cls-1" cx="494.46" cy="74.31" r="15.33"/>
  </g>
  <g class="cls-8">
    <path class="cls-2" d="M336.21,1085.32c-5.74,4.46-9.95,10.15-12.54,16.42l-46.81-13.5c2.95-14.85-.32-30.86-10.33-43.75-18.33-23.61-52.33-27.88-75.93-9.55-23.61,18.33-27.88,52.33-9.55,75.93,2.41,3.1,5.09,5.87,7.97,8.29l-32.35,48.14h-.01c-18.37-10.19-41.83-9.13-59.49,4.58-17.76,13.79-24.57,36.45-19.07,56.88l-54.42,19.77c-1.7-3.65-3.82-7.17-6.39-10.49-18.33-23.61-52.33-27.88-75.93-9.55-8.01,6.22-13.81,14.26-17.23,23.07l-55.17-16.31c3.07-14.95-.17-31.11-10.26-44.11-17.43-22.44-49.02-27.41-72.39-12.09l-35.6-45.48c20.35-18.87,23.24-50.51,5.9-72.83-10.33-13.3-25.61-20.46-41.22-20.91l-1.13-56.93c10.03-.92,19.91-4.63,28.46-11.27,23.89-18.56,28.22-52.96,9.66-76.85-2.7-3.48-5.74-6.54-9.04-9.18l31.69-46.81c18.73,10.88,42.96,9.99,61.12-4.11,17.67-13.73,24.64-36.13,19.55-56.53h.01s52.87-17.59,52.87-17.59c1.54,3,3.37,5.89,5.5,8.64,18.56,23.89,52.96,28.22,76.85,9.66s28.22-52.96,9.66-76.85c-9.83-12.66-24.1-19.82-38.9-21.01l-2.22-49.13c6.51-1.03,12.85-3.67,18.42-8,17.63-13.69,20.83-39.09,7.13-56.72-13.69-17.63-39.09-20.83-56.72-7.13-3.45,2.68-6.36,5.82-8.68,9.25l-103.48-54.16c3.32-9.56,1.88-20.56-4.8-29.16-10.49-13.5-29.94-15.95-43.45-5.45-13.51,10.49-15.96,29.94-5.47,43.45,2.38,3.07,5.24,5.57,8.38,7.48l-45.73,108.75c-12.07-3.57-25.62-1.48-36.32,6.83-10.57,8.21-15.95,20.61-15.61,33.03l-115.11,16.76c-1.06-3.55-2.79-6.98-5.2-10.08-10.49-13.5-29.94-15.95-43.45-5.45-13.51,10.49-15.96,29.94-5.47,43.45,6.65,8.57,16.91,12.69,26.97,11.88l26.55,114.02c-3.95,1.4-7.74,3.45-11.23,6.16-17.63,13.69-20.83,39.09-7.13,56.72l.2.26-83.69,83.05c-10.9-8.44-26.53-8.8-37.93.05-13.51,10.49-15.96,29.94-5.47,43.45,10.49,13.51,29.95,15.97,43.46,5.47.66-.51,1.29-1.05,1.9-1.61l90.1,74.15c-10.71,14.21-11.05,34.35.39,49.08,4.25,5.47,9.61,9.54,15.52,12.17l-16.58,118.29c-6.75-.08-13.56,2.04-19.3,6.5-13.51,10.49-15.96,29.94-5.47,43.45,10.49,13.51,29.95,15.97,43.46,5.47,5.84-4.54,9.61-10.75,11.16-17.43l118.7,9.08c.3,8.19,3.07,16.35,8.47,23.3,11.01,14.17,29.58,19.02,45.6,13.26l51.16,103.81c-.47.31-.92.65-1.36.99-13.51,10.49-15.96,29.94-5.47,43.45,10.49,13.51,29.95,15.97,43.46,5.47,11.29-8.77,14.85-23.8,9.58-36.39l99.89-60.22.11.14c13.69,17.63,39.09,20.83,56.72,7.13,3.41-2.65,6.28-5.73,8.59-9.11l103.3,54.57c-3.36,9.6-1.95,20.65,4.75,29.27,10.49,13.51,29.95,15.97,43.46,5.47,13.51-10.49,15.95-29.95,5.46-43.47-2.4-3.09-5.27-5.6-8.43-7.5l45.33-108.51c12,3.48,25.44,1.36,36.07-6.9,10.64-8.26,16.03-20.8,15.61-33.31l116.88-17.33c1.06,3.52,2.78,6.89,5.17,9.97,10.49,13.51,29.95,15.97,43.46,5.47,13.51-10.49,15.95-29.95,5.46-43.47-6.68-8.6-16.99-12.71-27.09-11.85l-27-113.94c3.89-1.41,7.63-3.44,11.08-6.12,17.63-13.69,20.83-39.09,7.13-56.72-13.69-17.63-39.09-20.83-56.72-7.13ZM173.11,1181.44c-2.66-3.42-5.64-6.43-8.87-9.02l32.25-48c14.61,8.55,32.67,9.81,48.47,3.09l38.61,73.09c-.68.46-1.35.95-1.99,1.45-7.69,5.97-12.65,14.18-14.63,23l-82.47-9.06c.32-12.05-3.39-24.28-11.36-34.55ZM17.58,1304.07c10.27-13.42,13.57-30.88,9.23-46.96l54.42-19.77c1.7,3.65,3.82,7.17,6.39,10.49,7.97,10.27,18.91,16.88,30.66,19.56l-11.64,82.15c-9.04-.26-18.21,2.51-25.91,8.48-.65.5-1.28,1.03-1.9,1.57l-61.25-55.51h0ZM-133.62,1244.02l55.17,16.31c-3.07,14.95.17,31.11,10.26,44.11.59.76,1.2,1.51,1.82,2.24l-57.01,58.45c-8.18-6.36-18.42-9.22-28.48-8.31l-16.74-80.58c6.26-1.87,12.28-4.9,17.75-9.14,8.01-6.22,13.81-14.26,17.23-23.07ZM-337.83,1219.44l32.04-75.06c15.87,6.17,34.3,4.7,49.31-5.16l35.6,45.48c-12.59,11.68-18.5,28.22-17.07,44.43l-81.12,14.14c-1.38-4.77-3.68-9.38-6.91-13.54s-7.39-7.75-11.85-10.3ZM-293.71,1040.36c-9.04,1.26-17.9,4.85-25.62,10.85-5.13,3.98-9.35,8.71-12.62,13.91l-73.97-35.74c3.29-9.44,3.05-19.93-1.01-29.35l70.98-40.53c.58.84,1.19,1.66,1.83,2.48,9.91,12.76,24.33,19.94,39.27,21.03l1.15,57.34ZM-240.71,825.04c2.48,3.19,5.25,6.04,8.24,8.53l-31.77,46.96c-14.83-8.25-32.94-9.24-48.73-2.26l-38.58-72.92c.67-.45,1.33-.93,1.97-1.43,7.69-5.97,12.65-14.18,14.63-23l82.74,9.08c-.33,12.23,3.41,24.63,11.49,35.04ZM-94.9,752.12l-52.35,17.4c-1.78-4.08-4.1-8-6.94-11.66-8.29-10.67-19.73-17.43-31.98-20.01l11.53-81.42c9.04.26,18.21-2.51,25.91-8.48.61-.47,1.19-.96,1.77-1.46l60.92,55.68c-10.99,14.23-14.22,32.99-8.86,49.94ZM392.84,1271.34c-2.62,1.05-5.14,2.48-7.48,4.29-7.85,6.09-11.97,15.22-11.97,24.43l-116.89,17.34c-1.35-5.08-3.72-9.97-7.14-14.38-13.69-17.63-39.09-20.83-56.72-7.13-17.63,13.69-20.83,39.09-7.13,56.72,3.44,4.43,7.62,7.94,12.23,10.52l-45.33,108.51c-8.92-2.26-18.75-.53-26.59,5.56-2.32,1.8-4.3,3.85-5.95,6.11l-103.31-54.58c5-12.82,3.34-27.87-5.72-39.53-13.69-17.63-39.09-20.83-56.72-7.13-15.12,11.74-19.62,32.09-11.97,48.77l-99.89,60.23c-8.24-10.01-21.57-13.55-33.32-9.78l-51.16-103.8c1-.65,1.98-1.34,2.94-2.08,17.63-13.69,20.83-39.09,7.13-56.72-13.69-17.63-39.09-20.83-56.72-7.13-8.07,6.27-13.12,14.99-14.9,24.32l-118.67-9.09c-.39-5.95-2.51-11.86-6.44-16.92-4.01-5.16-9.32-8.71-15.13-10.53l16.39-116.98c11,2.09,22.81-.37,32.36-7.78,17.63-13.69,20.83-39.09,7.13-56.72-13.69-17.63-39.09-20.83-56.72-7.13-.41.32-.82.65-1.21.99l-90.64-74.6c6.05-10.23,5.84-23.46-1.4-33.65l83.79-83.17c14.26,11.45,35.01,12.09,50.09.38,17.63-13.69,20.83-39.09,7.13-56.72-8.99-11.58-23.02-16.93-36.6-15.36l-26.55-114.02c2.66-1.04,5.22-2.48,7.6-4.33,7.83-6.08,11.94-15.17,11.96-24.36l115.08-16.74c1.34,5.17,3.73,10.16,7.21,14.64,13.69,17.63,39.09,20.83,56.72,7.13,17.63-13.69,20.83-39.09,7.13-56.72-3.38-4.36-7.48-7.83-12.01-10.39l45.76-108.8c8.93,2.29,18.8.57,26.66-5.53,2.35-1.82,4.37-3.92,6.03-6.22l103.48,54.16c-4.94,12.79-3.25,27.77,5.77,39.39,7.36,9.48,18.1,14.78,29.18,15.53l2.2,48.76c-10.15.88-20.17,4.6-28.81,11.31-1.26.98-2.47,2-3.61,3.07l-60.93-55.69c10.29-14.17,10.49-33.99-.8-48.53-13.69-17.63-39.09-20.83-56.72-7.13-17.63,13.69-20.83,39.09-7.13,56.72,5.7,7.34,13.43,12.17,21.78,14.34l-11.56,81.57c-12.47-.52-25.18,3.21-35.81,11.46-10.89,8.45-17.72,20.2-20.16,32.74l-82.74-9.08c-.03-8.63-2.79-17.31-8.5-24.66-13.69-17.63-39.09-20.83-56.72-7.13-17.63,13.69-20.83,39.09-7.13,56.72,11.25,14.49,30.42,19.23,46.68,12.85l38.63,73.01c-1.18.77-2.35,1.61-3.49,2.5-20.61,16-26.66,43.78-16.02,66.45l-70.97,40.54c-.22-.31-.46-.62-.69-.91-13.69-17.63-39.09-20.83-56.72-7.13-17.63,13.69-20.83,39.09-7.13,56.72,13.69,17.63,39.09,20.83,56.72,7.13,3.81-2.96,6.96-6.48,9.39-10.33l73.75,35.65c-7.17,17.36-5.08,37.99,7.27,53.9,4.23,5.45,9.3,9.87,14.88,13.21l-32.21,75.48c-12.1-3.66-25.75-1.58-36.5,6.77-17.63,13.69-20.83,39.09-7.13,56.72,13.69,17.63,39.09,20.83,56.72,7.13,10.89-8.45,16.27-21.38,15.57-34.18l81.15-14.16c1.8,6.86,4.99,13.48,9.61,19.43,12.09,15.57,31.01,22.73,49.25,20.53l16.75,80.59c-4.28,1.4-8.39,3.56-12.15,6.48-17.63,13.69-20.83,39.09-7.13,56.72,13.69,17.63,39.09,20.83,56.72,7.13,17.63-13.69,20.83-39.09,7.13-56.72-.2-.26-.41-.53-.62-.77l57-58.46c19.1,15.75,47.21,16.76,67.58.94,1.3-1.01,2.53-2.06,3.7-3.15l61.26,55.52c-10.2,14.16-10.35,33.89.9,48.38,13.69,17.63,39.09,20.83,56.72,7.13,17.63-13.69,20.83-39.09,7.13-56.72-5.69-7.33-13.41-12.17-21.77-14.34l11.62-82.15c12.6.72,25.5-2.95,36.24-11.29,10.74-8.34,17.49-19.94,19.91-32.32l82.47,9.08c.03,8.63,2.81,17.3,8.5,24.64,13.69,17.63,39.09,20.83,56.72,7.13,17.63-13.69,20.83-39.09,7.13-56.72-11.25-14.49-30.41-19.23-46.65-12.86l-38.62-73.1c1.34-.86,2.67-1.79,3.97-2.8,8.12-6.3,13.95-14.46,17.36-23.42l46.81,13.5c-1.82,10.77.71,22.24,7.93,31.54,9.03,11.63,23.13,16.97,36.76,15.34l27,113.96Z"/>
  </g>
  <g class="cls-6">
    <g>
      <path class="cls-5" d="M998.21,1085.32c-5.74,4.46-9.95,10.15-12.54,16.42l-46.81-13.5c2.95-14.85-.32-30.86-10.33-43.75-18.33-23.61-52.33-27.88-75.93-9.55-23.61,18.33-27.88,52.33-9.55,75.93,2.41,3.1,5.09,5.87,7.97,8.29l-32.35,48.14h-.01c-18.37-10.19-41.83-9.13-59.49,4.58-17.76,13.79-24.57,36.45-19.07,56.88l-54.42,19.77c-1.7-3.65-3.82-7.17-6.39-10.49-18.33-23.61-52.33-27.88-75.93-9.55-8.01,6.22-13.81,14.26-17.23,23.07l-55.17-16.31c3.07-14.95-.17-31.11-10.26-44.11-17.43-22.44-49.02-27.41-72.39-12.09l-35.6-45.48c20.35-18.87,23.24-50.51,5.9-72.83-10.33-13.3-25.61-20.46-41.22-20.91l-1.13-56.93c10.03-.92,19.91-4.63,28.46-11.27,23.89-18.56,28.22-52.96,9.66-76.85-2.7-3.48-5.74-6.54-9.04-9.18l31.69-46.81c18.73,10.88,42.96,9.99,61.12-4.11,17.67-13.73,24.64-36.13,19.55-56.53h.01s52.87-17.59,52.87-17.59c1.54,3,3.37,5.89,5.5,8.64,18.56,23.89,52.96,28.22,76.85,9.66s28.22-52.96,9.66-76.85c-9.83-12.66-24.1-19.82-38.9-21.01l-2.22-49.13c6.51-1.03,12.85-3.67,18.42-8,17.63-13.69,20.83-39.09,7.13-56.72-13.69-17.63-39.09-20.83-56.72-7.13-3.45,2.68-6.36,5.82-8.68,9.25l-103.48-54.16c3.32-9.56,1.88-20.56-4.8-29.16-10.49-13.5-29.94-15.95-43.45-5.45-13.51,10.49-15.96,29.94-5.47,43.45,2.38,3.07,5.24,5.57,8.38,7.48l-45.73,108.75c-12.07-3.57-25.62-1.48-36.32,6.83-10.57,8.21-15.95,20.61-15.61,33.03l-115.11,16.76c-1.06-3.55-2.79-6.98-5.2-10.08-10.49-13.5-29.94-15.95-43.45-5.45-13.51,10.49-15.96,29.94-5.47,43.45,6.65,8.57,16.91,12.69,26.97,11.88l26.55,114.02c-3.95,1.4-7.74,3.45-11.23,6.16-17.63,13.69-20.83,39.09-7.13,56.72l.2.26-83.69,83.05c-10.9-8.44-26.53-8.8-37.93.05-13.51,10.49-15.96,29.94-5.47,43.45,10.49,13.51,29.95,15.97,43.46,5.47.66-.51,1.29-1.05,1.9-1.61l90.1,74.15c-10.71,14.21-11.05,34.35.39,49.08,4.25,5.47,9.61,9.54,15.52,12.17l-16.58,118.29c-6.75-.08-13.56,2.04-19.3,6.5-13.51,10.49-15.96,29.94-5.47,43.45,10.49,13.51,29.95,15.97,43.46,5.47,5.84-4.54,9.61-10.75,11.16-17.43l118.7,9.08c.3,8.19,3.07,16.35,8.47,23.3,11.01,14.17,29.58,19.02,45.6,13.26l51.16,103.81c-.47.31-.92.65-1.36.99-13.51,10.49-15.96,29.94-5.47,43.45,10.49,13.51,29.95,15.97,43.46,5.47,11.29-8.77,14.85-23.8,9.58-36.39l99.89-60.22.11.14c13.69,17.63,39.09,20.83,56.72,7.13,3.41-2.65,6.28-5.73,8.59-9.11l103.3,54.57c-3.36,9.6-1.95,20.65,4.75,29.27,10.49,13.51,29.95,15.97,43.46,5.47,13.51-10.49,15.95-29.95,5.46-43.47-2.4-3.09-5.27-5.6-8.43-7.5l45.33-108.51c12,3.48,25.44,1.36,36.07-6.9,10.64-8.26,16.03-20.8,15.61-33.31l116.88-17.33c1.06,3.52,2.78,6.89,5.17,9.97,10.49,13.51,29.95,15.97,43.46,5.47,13.51-10.49,15.95-29.95,5.46-43.47-6.68-8.6-16.99-12.71-27.09-11.85l-27-113.94c3.89-1.41,7.63-3.44,11.08-6.12,17.63-13.69,20.83-39.09,7.13-56.72-13.69-17.63-39.09-20.83-56.72-7.13ZM835.11,1181.44c-2.66-3.42-5.64-6.43-8.87-9.02l32.25-48c14.61,8.55,32.67,9.81,48.47,3.09l38.61,73.09c-.68.46-1.35.95-1.99,1.45-7.69,5.97-12.65,14.18-14.63,23l-82.47-9.06c.32-12.05-3.39-24.28-11.36-34.55ZM679.58,1304.07c10.27-13.42,13.57-30.88,9.23-46.96l54.42-19.77c1.7,3.65,3.82,7.17,6.39,10.49,7.97,10.27,18.91,16.88,30.66,19.56l-11.64,82.15c-9.04-.26-18.21,2.51-25.91,8.48-.65.5-1.28,1.03-1.9,1.57l-61.25-55.51h0ZM528.38,1244.02l55.17,16.31c-3.07,14.95.17,31.11,10.26,44.11.59.76,1.2,1.51,1.82,2.24l-57.01,58.45c-8.18-6.36-18.42-9.22-28.48-8.31l-16.74-80.58c6.26-1.87,12.28-4.9,17.75-9.14,8.01-6.22,13.81-14.26,17.23-23.07ZM324.17,1219.44l32.04-75.06c15.87,6.17,34.3,4.7,49.31-5.16l35.6,45.48c-12.59,11.68-18.5,28.22-17.07,44.43l-81.12,14.14c-1.38-4.77-3.68-9.38-6.91-13.54s-7.39-7.75-11.85-10.3ZM368.29,1040.36c-9.04,1.26-17.9,4.85-25.62,10.85-5.13,3.98-9.35,8.71-12.62,13.91l-73.97-35.74c3.29-9.44,3.05-19.93-1.01-29.35l70.98-40.53c.58.84,1.19,1.66,1.83,2.48,9.91,12.76,24.33,19.94,39.27,21.03l1.15,57.34ZM421.29,825.04c2.48,3.19,5.25,6.04,8.24,8.53l-31.77,46.96c-14.83-8.25-32.94-9.24-48.73-2.26l-38.58-72.92c.67-.45,1.33-.93,1.97-1.43,7.69-5.97,12.65-14.18,14.63-23l82.74,9.08c-.33,12.23,3.41,24.63,11.49,35.04ZM567.1,752.12l-52.35,17.4c-1.78-4.08-4.1-8-6.94-11.66-8.29-10.67-19.73-17.43-31.98-20.01l11.53-81.42c9.04.26,18.21-2.51,25.91-8.48.61-.47,1.19-.96,1.77-1.46l60.92,55.68c-10.99,14.23-14.22,32.99-8.86,49.94ZM1054.84,1271.34c-2.62,1.05-5.14,2.48-7.48,4.29-7.85,6.09-11.97,15.22-11.97,24.43l-116.89,17.34c-1.35-5.08-3.72-9.97-7.14-14.38-13.69-17.63-39.09-20.83-56.72-7.13-17.63,13.69-20.83,39.09-7.13,56.72,3.44,4.43,7.62,7.94,12.23,10.52l-45.33,108.51c-8.92-2.26-18.75-.53-26.59,5.56-2.32,1.8-4.3,3.85-5.95,6.11l-103.31-54.58c5-12.82,3.34-27.87-5.72-39.53-13.69-17.63-39.09-20.83-56.72-7.13-15.12,11.74-19.62,32.09-11.97,48.77l-99.89,60.23c-8.24-10.01-21.57-13.55-33.32-9.78l-51.16-103.8c1-.65,1.98-1.34,2.94-2.08,17.63-13.69,20.83-39.09,7.13-56.72-13.69-17.63-39.09-20.83-56.72-7.13-8.07,6.27-13.12,14.99-14.9,24.32l-118.67-9.09c-.39-5.95-2.51-11.86-6.44-16.92-4.01-5.16-9.32-8.71-15.13-10.53l16.39-116.98c11,2.09,22.81-.37,32.36-7.78,17.63-13.69,20.83-39.09,7.13-56.72-13.69-17.63-39.09-20.83-56.72-7.13-.41.32-.82.65-1.21.99l-90.64-74.6c6.05-10.23,5.84-23.46-1.4-33.65l83.79-83.17c14.26,11.45,35.01,12.09,50.09.38,17.63-13.69,20.83-39.09,7.13-56.72-8.99-11.58-23.02-16.93-36.6-15.36l-26.55-114.02c2.66-1.04,5.22-2.48,7.6-4.33,7.83-6.08,11.94-15.17,11.96-24.36l115.08-16.74c1.34,5.17,3.73,10.16,7.21,14.64,13.69,17.63,39.09,20.83,56.72,7.13,17.63-13.69,20.83-39.09,7.13-56.72-3.38-4.36-7.48-7.83-12.01-10.39l45.76-108.8c8.93,2.29,18.8.57,26.66-5.53,2.35-1.82,4.37-3.92,6.03-6.22l103.48,54.16c-4.94,12.79-3.25,27.77,5.77,39.39,7.36,9.48,18.1,14.78,29.18,15.53l2.2,48.76c-10.15.88-20.17,4.6-28.81,11.31-1.26.98-2.47,2-3.61,3.07l-60.93-55.69c10.29-14.17,10.49-33.99-.8-48.53-13.69-17.63-39.09-20.83-56.72-7.13-17.63,13.69-20.83,39.09-7.13,56.72,5.7,7.34,13.43,12.17,21.78,14.34l-11.56,81.57c-12.47-.52-25.18,3.21-35.81,11.46-10.89,8.45-17.72,20.2-20.16,32.74l-82.74-9.08c-.03-8.63-2.79-17.31-8.5-24.66-13.69-17.63-39.09-20.83-56.72-7.13-17.63,13.69-20.83,39.09-7.13,56.72,11.25,14.49,30.42,19.23,46.68,12.85l38.63,73.01c-1.18.77-2.35,1.61-3.49,2.5-20.61,16-26.66,43.78-16.02,66.45l-70.97,40.54c-.22-.31-.46-.62-.69-.91-13.69-17.63-39.09-20.83-56.72-7.13-17.63,13.69-20.83,39.09-7.13,56.72,13.69,17.63,39.09,20.83,56.72,7.13,3.81-2.96,6.96-6.48,9.39-10.33l73.75,35.65c-7.17,17.36-5.08,37.99,7.27,53.9,4.23,5.45,9.3,9.87,14.88,13.21l-32.21,75.48c-12.1-3.66-25.75-1.58-36.5,6.77-17.63,13.69-20.83,39.09-7.13,56.72,13.69,17.63,39.09,20.83,56.72,7.13,10.89-8.45,16.27-21.38,15.57-34.18l81.15-14.16c1.8,6.86,4.99,13.48,9.61,19.43,12.09,15.57,31.01,22.73,49.25,20.53l16.75,80.59c-4.28,1.4-8.39,3.56-12.15,6.48-17.63,13.69-20.83,39.09-7.13,56.72,13.69,17.63,39.09,20.83,56.72,7.13,17.63-13.69,20.83-39.09,7.13-56.72-.2-.26-.41-.53-.62-.77l57-58.46c19.1,15.75,47.21,16.76,67.58.94,1.3-1.01,2.53-2.06,3.7-3.15l61.26,55.52c-10.2,14.16-10.35,33.89.9,48.38,13.69,17.63,39.09,20.83,56.72,7.13,17.63-13.69,20.83-39.09,7.13-56.72-5.69-7.33-13.41-12.17-21.77-14.34l11.62-82.15c12.6.72,25.5-2.95,36.24-11.29,10.74-8.34,17.49-19.94,19.91-32.32l82.47,9.08c.03,8.63,2.81,17.3,8.5,24.64,13.69,17.63,39.09,20.83,56.72,7.13,17.63-13.69,20.83-39.09,7.13-56.72-11.25-14.49-30.41-19.23-46.65-12.86l-38.62-73.1c1.34-.86,2.67-1.79,3.97-2.8,8.12-6.3,13.95-14.46,17.36-23.42l46.81,13.5c-1.82,10.77.71,22.24,7.93,31.54,9.03,11.63,23.13,16.97,36.76,15.34l27,113.96Z"/>
      <circle class="cls-3" cx="302.31" cy="584.14" r="30.97"/>
    </g>
  </g>
</svg>